# xmcd
#
# Track frame offsets: 
#        150
#        19650
#        40054
#        70174
#        72512
#        99982
#        102275
#        127266
#        139959
#        168095
#        194804
#        226709
#        239853
#        265075
#        269128
#        311029
#        317222
#
# Disc length: 4662 seconds
#
# Revision: 0
# Processed by: cddbd v1.5.2PL0 Copyright (c) Steve Scherf et al.
# Submitted via: ExactAudioCopy v0.95a5
#
DISCID=05123411
DTITLE=Tab Benoit - Live at the 2010 New Orleans Jazz and Heritage Festi
DTITLE=valq
DYEAR=2010
DGENRE=Blues
TTITLE0=Fever for the Bayou
TTITLE1=Lost In Your Lovin'
TTITLE2=Muddy Bottom Blues
TTITLE3=Stage banter I
TTITLE4=Sac A - Lait Fishin'
TTITLE5=Tuning
TTITLE6=Pack It Up
TTITLE7=Band introductions
TTITLE8=New Orleans Lady
TTITLE9=I Was Good To You Baby
TTITLE10=One Foot In New York City
TTITLE11=Wetlands announcement
TTITLE12=When A Cajun Man Gets The Blues
TTITLE13=Stage banter II
TTITLE14=We Make A Good Gumbo
TTITLE15=Crowd noise
TTITLE16=Night Train
EXTD=
EXTT0=
EXTT1=
EXTT2=
EXTT3=
EXTT4=
EXTT5=
EXTT6=
EXTT7=
EXTT8=
EXTT9=
EXTT10=
EXTT11=
EXTT12=
EXTT13=
EXTT14=
EXTT15=
EXTT16=
PLAYORDER=
